<svg width="32" height="32" viewBox="0 0 32 32" fill="none" xmlns="http://www.w3.org/2000/svg">
<rect width="32" height="32" rx="8" fill="white"/>
<path fill-rule="evenodd" clip-rule="evenodd" d="M11.5 14.875C10.8787 14.875 10.375 15.3787 10.375 16C10.375 16.6213 10.8787 17.125 11.5 17.125C12.1213 17.125 12.625 16.6213 12.625 16C12.625 15.3787 12.1213 14.875 11.5 14.875ZM9.25 16C9.25 14.7574 10.2574 13.75 11.5 13.75C12.7426 13.75 13.75 14.7574 13.75 16C13.75 17.2426 12.7426 18.25 11.5 18.25C10.2574 18.25 9.25 17.2426 9.25 16Z" fill="black"/>
<path fill-rule="evenodd" clip-rule="evenodd" d="M20.5 9.8125C19.8787 9.8125 19.375 10.3162 19.375 10.9375C19.375 11.5588 19.8787 12.0625 20.5 12.0625C21.1213 12.0625 21.625 11.5588 21.625 10.9375C21.625 10.3162 21.1213 9.8125 20.5 9.8125ZM18.25 10.9375C18.25 9.69486 19.2574 8.6875 20.5 8.6875C21.7426 8.6875 22.75 9.69486 22.75 10.9375C22.75 12.1801 21.7426 13.1875 20.5 13.1875C19.2574 13.1875 18.25 12.1801 18.25 10.9375Z" fill="black"/>
<path fill-rule="evenodd" clip-rule="evenodd" d="M20.5 19.9375C19.8787 19.9375 19.375 20.4412 19.375 21.0625C19.375 21.6838 19.8787 22.1875 20.5 22.1875C21.1213 22.1875 21.625 21.6838 21.625 21.0625C21.625 20.4412 21.1213 19.9375 20.5 19.9375ZM18.25 21.0625C18.25 19.8199 19.2574 18.8125 20.5 18.8125C21.7426 18.8125 22.75 19.8199 22.75 21.0625C22.75 22.3051 21.7426 23.3125 20.5 23.3125C19.2574 23.3125 18.25 22.3051 18.25 21.0625Z" fill="black"/>
<path fill-rule="evenodd" clip-rule="evenodd" d="M19.5179 11.489C19.6702 11.7597 19.5742 12.1027 19.3034 12.255L13.2446 15.6631C12.9739 15.8154 12.6309 15.7193 12.4786 15.4486C12.3263 15.1778 12.4223 14.8348 12.6931 14.6825L18.7519 11.2745C19.0227 11.1222 19.3656 11.2182 19.5179 11.489ZM12.4786 16.5515C12.6309 16.2807 12.9739 16.1847 13.2446 16.337L19.3034 19.745C19.5742 19.8973 19.6702 20.2403 19.5179 20.5111C19.3656 20.7818 19.0227 20.8779 18.7519 20.7256L12.6931 17.3175C12.4223 17.1652 12.3263 16.8222 12.4786 16.5515Z" fill="black"/>
</svg>
