<svg xmlns="http://www.w3.org/2000/svg" fill="none" viewBox="0 0 320 400" height="1em" width="1em" role="img">
    <g opacity=".2" stroke="#33898C" stroke-miterlimit="10">
        <path d="M-110.078-185.895c65.53 0 118.466 60.444 177.596 75.977 61.287 16.095 147.897-7.079 198.911 22.946 51.517 30.336 50.852 104.327 88.355 145.999 37.133 41.264 124.542 63.445 144.439 113.02 19.202 47.829-34.769 107.126-34.769 160.132 0 53.007 53.971 112.303 34.769 160.132-19.203 47.83-107.306 71.756-144.439 113.021-37.503 41.671-36.823 115.663-88.355 145.998-51.014 30.037-137.624 6.852-198.911 22.947-59.13 15.532-112.066 75.976-177.596 75.976-65.531 0-118.467-60.444-177.596-75.976-61.288-16.095-147.898 7.078-198.912-22.947-51.517-30.335-50.852-104.327-88.355-145.998-37.133-41.265-124.541-63.446-144.439-113.021-19.202-47.829 34.769-107.125 34.769-160.132 0-53.006-53.971-112.303-34.769-160.132 19.898-49.575 107.306-71.756 144.439-113.02 37.134-41.265 36.823-115.663 88.355-146 51.014-30.036 137.624-6.85 198.912-22.945 59.129-15.533 112.065-75.977 177.596-75.977z" />
        <path d="M-110.079-167.301c62.116 0 109.065 73.729 165.12 88.46 58.095 15.257 149.524-21.547 197.877 6.923 48.841 28.746 33.645 110.653 69.196 150.16 35.197 39.112 136.383 52.576 155.245 99.568 18.197 45.343-53.29 104.137-53.29 154.381 0 50.245 71.487 109.039 53.29 154.381-18.862 46.992-120.048 60.456-155.245 99.568-35.536 39.507-20.355 121.415-69.196 150.16-48.353 28.471-139.797-8.334-197.877 6.924-56.055 14.719-103.004 88.46-165.12 88.46-62.115 0-109.064-73.729-165.119-88.46-58.095-15.258-149.524 21.547-197.877-6.924-48.841-28.745-33.645-110.653-69.197-150.16-35.197-39.112-136.382-52.576-155.245-99.568-18.197-45.342 53.291-104.136 53.291-154.381 0-50.244-71.488-109.038-53.291-154.381 18.863-46.992 120.048-60.456 155.245-99.568 35.537-39.507 20.356-121.414 69.197-150.16 48.353-28.47 139.797 8.335 197.877-6.923 56.055-14.72 103.004-88.46 165.119-88.46z" />
        <path d="M-110.078-147.787c58.7 0 100.017 85.22 152.998 99.126 52.98 13.907 150.144-34.377 195.837-7.473 46.15 27.167 18.034 115.699 51.635 153.03 33.6 37.33 146.198 42.544 164.025 86.941 17.192 42.843-69.566 100.872-69.566 148.354 0 47.483 86.758 105.499 69.566 148.354-17.827 44.41-130.765 49.982-164.025 86.942-33.586 37.331-5.485 125.862-51.635 153.029-45.693 26.904-140.936-21.894-195.838-7.473-52.965 13.906-94.296 99.126-152.997 99.126-58.701 0-100.018-85.22-152.998-99.126-54.902-14.421-150.145 34.377-195.838 7.473-46.15-27.167-18.034-115.698-51.634-153.029-33.261-36.96-146.198-42.544-164.026-86.942-17.192-42.843 69.566-100.871 69.566-148.354 0-47.482-86.758-105.499-69.566-148.354 17.828-44.409 130.765-49.982 164.026-86.942 33.585-37.33 5.484-125.862 51.634-153.03 45.693-26.903 140.936 21.895 195.838 7.474 52.965-13.906 94.297-99.126 152.998-99.126z" />
        <path d="M-110.079-127.352c55.286 0 91.34 94.893 141.217 107.999C82.832-5.77 180.854-64.923 223.885-39.585c43.461 25.588 4.036 119.441 35.67 154.596 31.324 34.807 154.003 33.337 170.796 75.151 16.202 40.344-83.609 97.309-83.609 142.029s99.811 101.685 83.609 142.029c-16.793 41.815-139.472 40.344-170.796 75.152-31.634 35.154 7.791 129.007-35.67 154.595-43.031 25.338-141.053-33.815-192.747-20.231-49.876 13.105-85.945 107.998-141.217 107.998-55.271 0-91.34-94.893-141.216-107.998-49.876-13.105-149.716 45.569-192.748 20.231-43.46-25.588-4.035-119.441-35.67-154.595-31.324-34.808-154.003-33.337-170.796-75.152-16.201-40.344 83.61-97.309 83.61-142.029s-99.811-101.685-83.61-142.029c16.793-41.814 139.472-40.344 170.796-75.151 31.635-35.155-7.79-129.008 35.67-154.596 43.032-25.338 141.054 33.815 192.748 20.232 49.876-13.106 85.945-107.999 141.216-107.999z" />
        <path d="M-110.079-105.984c51.871 0 83.003 102.76 129.804 115.053 48.501 12.734 148.268-55.135 188.638-31.364 40.77 24.01-8.366 121.88 21.317 154.871 29.387 32.655 159.797 24.955 175.541 64.187 15.196 37.857-95.421 93.47-95.421 135.428s110.617 97.572 95.421 135.428c-15.744 39.232-146.169 31.532-175.541 64.187-29.683 32.979 19.468 130.861-21.317 154.871-40.784 24.011-140.137-44.11-188.638-31.364-46.8 12.292-77.933 115.053-129.804 115.053-51.871 0-83.003-102.761-129.804-115.053-48.501-12.734-148.268 55.135-188.639 31.364-40.37-23.771 8.367-121.88-21.316-154.871-29.387-32.655-159.798-24.955-175.541-64.187-15.743-39.231 95.421-93.47 95.421-135.428s-110.617-97.571-95.421-135.428c15.743-39.232 146.169-31.532 175.541-64.187 29.683-32.978-19.468-130.86 21.316-154.871 40.371-23.771 140.138 44.11 188.639 31.364 46.801-12.292 77.933-115.053 129.804-115.053z" />
        <path d="M-110.079-83.684c48.442 0 75.02 108.812 118.747 120.29 43.727 11.48 145.799-63.074 183.509-40.87 38.094 22.42-19.173 123.041 8.559 153.843 27.732 30.802 163.567 17.41 178.276 54.059 14.708 36.649-104.985 89.345-104.985 128.529s119.176 93.172 104.985 128.529c-14.709 36.649-150.825 23.556-178.276 54.059-27.451 30.503 29.535 131.423-8.559 153.843-37.71 22.205-138.2-52.768-183.509-40.87-43.711 11.479-70.29 120.29-118.747 120.29-48.457 0-75.021-108.811-118.747-120.29s-145.799 63.075-183.509 40.87c-38.094-22.42 19.173-123.041-8.559-153.843-27.451-30.503-163.567-17.41-178.276-54.059-14.191-35.357 104.985-89.345 104.985-128.529s-119.176-93.171-104.985-128.529c14.709-36.649 150.825-23.556 178.276-54.059 27.451-30.503-29.535-131.422 8.559-153.842 37.71-22.205 138.201 52.767 183.509 40.87 43.711-11.48 70.29-120.29 118.747-120.29z" />
        <path d="M-110.078-60.463c45.027 0 67.407 113.057 108.03 123.734 42.114 11.061 142.28-69.376 177.344-48.737 35.404 20.841-28.368 122.897-2.602 151.534 25.515 28.351 165.327 10.702 179 44.769 13.186 32.87-112.316 84.92-112.316 121.354s125.502 88.484 112.316 121.355c-13.673 34.066-153.485 16.417-179 44.768-25.766 28.638 38.006 130.693 2.602 151.535-35.049 20.638-135.23-59.799-177.345-48.738-40.636 10.666-63.002 123.734-108.029 123.734-45.028 0-67.408-113.056-108.03-123.734-42.115-11.061-142.281 69.376-177.345 48.738-35.404-20.842 28.368-122.897 2.602-151.535-25.766-28.638-165.326-10.702-179-44.768-13.186-32.871 112.317-84.921 112.317-121.355s-125.503-88.484-112.317-121.354c13.186-32.871 153.485-16.418 179-44.769 25.514-28.35-38.006-130.693-2.602-151.535 35.049-20.638 135.23 59.799 177.345 48.739 40.637-10.666 63.002-123.735 108.03-123.735z" />
        <path d="M-110.078-36.309c41.612 0 60.135 115.496 97.682 125.36 38.922 10.224 137.757-74.04 170.145-54.98 32.714 19.264-35.965 121.451-12.151 147.925 23.815 26.473 165.06 4.83 177.699 36.302 12.196 30.371-117.416 80.221-117.416 113.881s129.597 83.51 117.416 113.881c-12.639 31.484-154.121 10.104-177.699 36.303-23.814 26.461 44.88 128.66 12.151 147.924-32.728 19.263-131.223-65.192-170.145-54.98-37.547 9.865-56.07 125.36-97.682 125.36-41.613 0-60.135-115.495-97.682-125.36-37.548-9.865-137.758 74.039-170.146 54.98-32.388-19.06 35.966-121.451 12.151-147.924-23.578-26.199-165.06-4.831-177.699-36.303-12.196-30.371 117.417-80.221 117.417-113.881s-129.598-83.51-117.417-113.881c12.181-30.372 154.121-10.104 177.699-36.302 23.815-26.462-44.879-128.661-12.151-147.924C-345.518 15-246.683 99.263-207.76 89.052c37.547-9.865 56.069-125.361 97.682-125.361z" />
        <path d="M-110.079-11.234c38.198 0 53.217 116.117 87.675 125.168 35.714 9.387 132.184-77.088 161.926-59.583 30.023 17.673-41.967 118.724-20.104 143.01 21.642 24.046 162.784-.216 174.373 28.673 11.191 27.885-120.269 75.236-120.269 106.133 0 30.898 131.46 78.261 120.269 106.133-11.19 27.873-152.731 4.628-174.373 28.674-21.848 24.285 50.142 125.336 20.104 143.009-29.727 17.506-126.197-68.958-161.926-59.583-34.473 9.052-49.477 125.169-87.675 125.169-38.197 0-53.216-116.117-87.674-125.169-35.714-9.387-132.184 77.089-161.927 59.583-30.023-17.673 41.968-118.724 20.104-143.009-21.863-24.285-162.783.215-174.373-28.674-11.589-28.889 120.27-75.235 120.27-106.133 0-30.897-131.46-78.26-120.27-106.133 11.604-28.889 152.732-4.627 174.373-28.673 21.849-24.286-50.142-125.337-20.104-143.01 29.728-17.505 126.198 68.958 161.927 59.583 34.472-9.051 49.477-125.168 87.674-125.168z" />
        <path d="M-110.079 14.773c34.783 0 46.654 114.945 78.037 123.184C-.66 146.195 93.549 59.469 120.63 75.408c27.082 15.94-46.357 114.695-26.46 136.816 19.705 21.893 158.482-4.437 169.037 21.869 10.185 25.386-120.891 69.963-120.891 98.098 0 28.136 131.076 72.713 120.891 98.098-10.555 26.306-149.332-.024-169.037 21.87-19.897 22.121 53.808 120.709 26.46 136.815C93.283 605.081.494 517.876-32.042 526.426c-31.383 8.238-43.254 123.184-78.037 123.184-34.783 0-46.653-114.946-78.036-123.184-32.521-8.538-125.591 78.487-152.673 62.548-27.347-16.094 46.358-114.694 26.461-136.815-19.897-22.121-158.482 4.436-169.037-21.87-10.555-26.306 120.891-69.962 120.891-98.098 0-28.135-131.076-72.712-120.891-98.098 10.185-25.385 149.332.024 169.037-21.869 19.705-21.894-53.808-120.71-26.461-136.816 27.067-15.939 120.137 71.098 152.673 62.549 31.383-8.239 43.253-123.184 78.036-123.184z" />
        <path d="M-110.078 41.712c31.368 0 40.444 111.945 68.738 119.382 29.328 7.701 117.978-78.26 142.384-63.9 24.657 14.517-49.151 109.362-31.206 129.307 17.946 19.944 152.17-7.82 161.69 15.903 9.52 23.723-119.279 64.402-119.279 89.775 0 25.374 128.459 66.877 119.279 89.776-9.52 23.723-143.921-3.839-161.69 15.903-17.768 19.741 55.863 114.802 31.206 129.306-24.406 14.373-113.056-71.6-142.384-63.9-28.294 7.438-37.385 119.382-68.738 119.382-31.354 0-40.445-111.944-68.739-119.382-29.328-7.7-117.978 78.261-142.384 63.9-24.657-14.516 49.152-109.361 31.206-129.306-17.768-19.742-152.17 7.82-161.69-15.903-9.52-23.724 119.279-64.402 119.279-89.776 0-25.373-128.459-66.877-119.279-89.775 9.18-22.898 143.922 3.838 161.69-15.903 17.769-19.742-55.863-114.802-31.206-129.307 24.406-14.372 113.056 71.601 142.384 63.9 29.329-7.7 37.385-119.381 68.739-119.381z" />
        <path d="M-110.079 69.573c27.939 0 34.591 107.149 59.81 113.774 26.135 6.863 109.33-76.408 131.076-63.601 21.966 12.938-50.35 102.749-34.355 120.517 15.832 17.59 143.833-10.367 152.318 10.774 8.19 20.399-115.421 58.555-115.421 81.154 0 22.599 123.611 60.767 115.421 81.154-8.485 21.141-136.486-6.827-152.318 10.774-15.994 17.768 56.321 107.58 34.355 120.517-21.745 12.807-104.94-70.464-131.076-63.6-25.219 6.624-31.856 113.773-59.81 113.773-27.953 0-34.591-107.149-59.809-113.773-26.136-6.864-109.331 76.407-131.076 63.6-21.967-12.937 50.349-102.749 34.354-120.517-15.832-17.589-143.832 10.367-152.317-10.774-8.19-20.399 115.421-58.555 115.421-81.154 0-22.599-123.611-60.767-115.421-81.154 8.485-21.141 136.485 6.828 152.317-10.774 15.995-17.768-56.321-107.579-34.354-120.517 21.745-12.807 104.94 70.464 131.076 63.601 25.218-6.625 31.856-113.774 59.809-113.774z" />
        <path d="M-110.078 98.354c24.524 0 29.092 100.537 51.22 106.348 22.13 5.812 99.649-72.915 118.733-61.675 19.084 11.24-49.935 94.833-35.906 110.425 13.895 15.449 133.485-12.088 140.935 6.469 7.45 18.558-109.33 52.421-109.33 72.258 0 19.837 116.529 54.358 109.33 72.258-7.45 18.558-127.04-8.98-140.935 6.469C9.94 426.498 79.15 509.984 59.875 521.332c-19.099 11.24-95.805-67.703-118.732-61.688-22.13 5.811-26.697 106.348-51.221 106.348-24.524 0-29.092-100.537-51.221-106.348-22.129-5.811-99.648 72.916-118.733 61.676-19.276-11.348 49.935-94.834 35.907-110.426-13.895-15.449-133.485 12.089-140.936-6.469-7.45-18.557 109.331-52.421 109.331-72.258 0-19.837-116.53-54.358-109.331-72.258 7.199-17.9 127.041 8.98 140.936-6.469 13.895-15.448-55.183-99.078-35.907-110.425 19.099-11.24 95.805 67.702 118.733 61.687 22.927-6.014 26.697-106.348 51.221-106.348z" />
        <path d="M-110.078 128.068c21.11 0 23.948 92.119 42.987 97.117 19.735 5.19 88.946-67.798 105.37-58.124 16.6 9.769-47.925 85.614-35.848 99.042 11.959 13.297 121.112-12.974 127.528 3.001 6.179 15.413-101.009 46-101.009 63.075 0 17.075 107.202 47.674 101.009 63.075-6.194 15.401-115.57-10.295-127.528 3.001-11.96 13.297 52.448 89.273 35.847 99.043-16.438 9.673-85.634-63.314-105.369-58.125-19.054 4.998-21.878 97.117-42.987 97.117s-23.948-92.119-42.987-97.117c-19.04-4.998-88.946 67.798-105.369 58.125-16.424-9.674 47.924-85.615 35.847-99.043-12.077-13.428-121.112 12.974-127.528-3.001-6.415-15.975 101.008-46 101.008-63.075 0-17.075-107.202-47.674-101.008-63.075 6.416-15.963 115.569 10.296 127.528-3.001 12.077-13.428-52.448-89.273-35.847-99.042 16.438-9.674 85.634 63.314 105.369 58.124 19.734-5.189 21.878-97.117 42.987-97.117z" />
        <path d="M-110.079 158.715c17.695 0 19.143 81.883 35.108 86.08 15.965 4.197 77.209-61.054 90.971-52.947 13.763 8.107-44.317 75.116-34.191 86.368 10.022 11.144 106.729-13.022 112.095.359 5.366 13.38-90.454 39.291-90.454 53.604 0 14.313 95.627 40.691 90.454 53.605-5.174 12.914-102.073-10.786-112.095.358C-28.317 397.394 29.91 464.319 16 472.51c-13.777 8.107-74.429-57.287-90.97-52.947-16.542 4.341-17.429 86.081-35.109 86.081-17.679 0-19.143-81.884-35.108-86.081-16.541-4.34-77.208 61.054-90.971 52.947-13.762-8.107 44.318-75.116 34.192-86.368-10.126-11.251-106.729 13.022-112.095-.358-5.189-12.914 90.453-39.292 90.453-53.605 0-14.313-95.627-40.69-90.453-53.604 5.174-12.914 102.072 10.785 112.095-.359 10.022-11.144-48.102-78.177-34.192-86.368 13.91-8.19 74.43 57.288 90.971 52.947 16.542-4.34 17.429-86.08 35.108-86.08z" />
        <path d="M-110.079 190.282c14.28 0 14.709 69.854 27.599 73.238 13.348 3.504 64.436-52.66 75.553-46.119 11.116 6.541-39.1 63.314-30.925 72.39 8.175 9.075 90.32-12.245 94.666-1.447 4.347 10.797-77.651 32.308-77.651 43.847 0 11.539 81.835 33.433 77.651 43.848-4.183 10.414-86.58-10.439-94.666-1.447-8.086 8.992 42.16 65.777 30.925 72.389-11.235 6.613-62.205-49.634-75.553-46.119-13.35 3.515-13.32 73.238-27.6 73.238s-14.708-69.854-27.599-73.238c-13.348-3.503-64.436 52.66-75.552 46.119-11.117-6.54 39.099-63.314 30.924-72.389-8.086-8.992-90.32 12.244-94.666 1.447-4.184-10.415 77.652-32.309 77.652-43.848 0-11.539-81.836-33.433-77.652-43.847 4.183-10.415 86.58 10.439 94.666 1.447 8.086-8.992-42.159-65.778-30.924-72.39 11.234-6.612 62.204 49.635 75.552 46.119 12.876-3.384 13.319-73.238 27.599-73.238z" />
        <path d="M-110.079 222.782c10.85 0 10.629 56.008 20.43 58.579 10.155 2.666 50.644-42.652 59.1-37.678 8.455 4.974-32.285 50.209-26.076 57.12 6.208 6.912 71.901-10.642 75.198-2.427 3.296 8.215-62.618 25.027-62.618 33.803 0 8.777 65.796 25.888 62.618 33.804-3.179 7.915-69.049-9.255-75.198-2.428-6.15 6.828 34.605 52.086 26.076 57.12-8.53 5.034-48.945-40.344-59.1-37.677-10.156 2.666-9.564 58.579-20.43 58.579-10.865 0-10.628-56.008-20.429-58.579-10.155-2.667-50.644 42.651-59.1 37.677-8.455-4.974 32.285-50.209 26.076-57.12-6.208-6.911-71.901 10.642-75.198 2.428-3.296-8.215 62.618-25.027 62.618-33.804 0-8.776-65.796-25.887-62.618-33.803 3.297-8.215 69.049 9.255 75.198 2.427 6.15-6.827-34.605-52.086-26.076-57.12 8.53-5.034 48.945 40.344 59.1 37.678 10.156-2.667 9.564-58.579 20.429-58.579z" />
        <path d="M-110.079 256.202c7.436 0 6.903 40.344 13.615 42.114 6.71 1.77 35.832-31.005 41.612-27.597 5.78 3.407-23.859 35.812-19.601 40.547 4.257 4.735 51.472-8.191 53.734-2.571 2.173 5.429-45.338 17.458-45.338 23.484 0 6.027 47.526 18.044 45.338 23.484-2.188 5.441-49.521-7.246-53.734-2.571-4.258 4.736 25.455 37.104 19.601 40.548-5.795 3.408-34.665-29.415-41.612-27.598-6.712 1.758-6.165 42.114-13.615 42.114s-6.903-40.344-13.615-42.114c-6.711-1.769-35.832 31.006-41.612 27.598-5.854-3.444 23.859-35.812 19.601-40.548-4.257-4.735-51.472 8.191-53.734 2.571-2.261-5.62 45.338-17.457 45.338-23.484 0-6.026-47.525-18.043-45.338-23.484 2.188-5.441 49.522 7.246 53.734 2.571 4.258-4.735-25.455-37.104-19.601-40.547 5.795-3.408 34.665 29.415 41.612 27.597 6.948-1.817 6.165-42.114 13.615-42.114z" />
        <path d="M-58.62 332.179c0 3.253-28.28 2.846-29.462 5.787-1.183 2.942 21.907 16.155 19.631 18.69-2.277 2.535-24.879-11.204-28.042-9.339-3.164 1.865 6.09 23.472 2.32 24.465-3.769.992-11.884-20.89-15.905-20.89-4.021 0-12.27 21.846-15.906 20.89-3.636-.957 5.455-22.611 2.321-24.465-3.134-1.853-25.751 11.898-28.042 9.339-2.292-2.559 20.858-15.652 19.631-18.69-1.227-3.037-29.462-2.534-29.462-5.787 0-3.252 28.279-2.846 29.462-5.787 1.182-2.942-21.908-16.154-19.631-18.689 2.276-2.535 24.878 11.204 28.042 9.338 3.163-1.865-6.091-23.472-2.321-24.464 3.636-.957 11.885 20.889 15.906 20.889 4.021 0 12.27-21.846 15.906-20.889 3.636.956-5.455 22.611-2.321 24.464 3.134 1.854 25.75-11.897 28.042-9.338 2.291 2.558-20.858 15.652-19.631 18.689 1.183 2.941 29.461 2.535 29.461 5.787z" />
    </g>
</svg>