<svg width="178" height="41" viewBox="0 0 178 41"  xmlns="http://www.w3.org/2000/svg">
<path d="M40.1967 0H0V40.3971H40.1959V26.2957H33.5251C31.2256 31.44 26.0497 35.0229 20.1264 35.0229C11.9606 35.0229 5.34758 28.3197 5.34758 20.1703C5.34758 12.021 11.9606 5.37504 20.1264 5.37504C26.1646 5.37504 31.3404 9.07407 33.6409 14.3329H40.1967V0ZM79.1242 26.295C76.7669 31.4391 71.6486 35.0218 65.6686 35.0221C57.7323 35.0221 51.2343 28.665 50.9468 20.7472H85.7951V0H45.5983V40.3962H85.7951V26.295H79.1242ZM79.6395 15.7774H51.5767C53.3592 9.1314 59.2817 5.37511 65.6651 5.37511C72.0484 5.37511 77.5695 8.89981 79.6395 15.7774ZM172.595 20.1695C172.595 28.3762 166.039 35.0221 157.873 35.0221C149.765 35.0221 143.152 28.3187 143.152 20.1695C143.152 12.0202 149.708 5.37423 157.873 5.37423C166.039 5.37423 172.595 11.9629 172.595 20.1695ZM178 0H137.804V40.3971H178V0ZM126.107 26.295H132.778V40.3962H91.1441V0H97.9296V20.1695C97.9296 29.1855 104.6 34.9647 112.536 34.9647C118.689 34.9647 124.094 31.6119 126.107 26.295Z" />
</svg>
