<svg width="256" height="92" viewBox="0 0 256 92" xmlns="http://www.w3.org/2000/svg">
<path d="M71.5193 13.3665H76.7978V11.2551H71.5193V7.16416H78.0107V5.05273H69.4204V19.5625H71.5256V13.3665H71.5193Z" />
<path d="M82.4596 4.85742H80.3545V6.90602H82.4596V4.85742Z" />
<path d="M82.4596 8.68457H80.3545V19.5685H82.4596V8.68457Z" />
<path d="M88.1276 4.75684H86.0225V19.5683H88.1276V4.75684Z" />
<path d="M93.6631 19.1604C94.5303 19.6442 95.5169 19.8893 96.5098 19.8705C97.5278 19.8705 98.5207 19.5877 99.3816 19.0535C100.242 18.5194 100.915 17.7276 101.304 16.7913L99.237 16.1503C98.992 16.6782 98.6023 17.1244 98.1122 17.4323C97.5969 17.7402 97.0062 17.891 96.4092 17.8722C95.9756 17.8973 95.542 17.8219 95.1399 17.6522C94.7377 17.4825 94.3858 17.2186 94.1093 16.8856C93.638 16.2509 93.374 15.4905 93.3426 14.6987H101.455C101.562 13.555 101.411 12.4051 101.015 11.3242C100.664 10.4319 100.048 9.66522 99.2433 9.13736C98.395 8.60322 97.4084 8.3393 96.4092 8.36443C95.4289 8.34558 94.4675 8.59066 93.6191 9.08081C92.8148 9.56468 92.1612 10.2685 91.7465 11.1105C91.2752 12.072 91.0427 13.1403 91.0741 14.2148C91.049 15.2391 91.2878 16.2572 91.7591 17.1683C92.1927 17.9978 92.8525 18.6828 93.6631 19.1478V19.1604ZM94.1093 11.2425C94.3983 10.9032 94.7691 10.633 95.1776 10.4633C95.5923 10.2873 96.0385 10.2182 96.4846 10.2496C96.8868 10.2182 97.289 10.2873 97.6597 10.4444C98.0305 10.6015 98.3573 10.8466 98.6149 11.1545C99.0108 11.7201 99.2433 12.3862 99.281 13.0774H93.3866C93.462 12.4113 93.7134 11.7829 94.1093 11.2425Z" />
<path d="M106.156 19.1224C107.011 19.6376 107.997 19.8953 108.99 19.8639C110.046 19.9016 111.089 19.5999 111.975 19.0155C112.817 18.4185 113.445 17.5639 113.747 16.5773L111.61 16.0746C111.422 16.6025 111.089 17.0612 110.649 17.4068C110.165 17.7273 109.581 17.8844 109.003 17.8467C108.575 17.8781 108.142 17.8027 107.746 17.6268C107.35 17.4508 107.011 17.1806 106.747 16.835C106.206 16.0306 105.936 15.0817 105.974 14.114C105.974 13.4542 106.087 12.8006 106.313 12.1785C106.502 11.6507 106.847 11.1856 107.3 10.8463C107.802 10.507 108.399 10.331 109.003 10.3562C109.587 10.3499 110.153 10.5258 110.63 10.8652C111.114 11.2234 111.472 11.7261 111.654 12.2979L113.747 11.6884C113.508 10.7018 112.924 9.84088 112.094 9.26275C111.196 8.6532 110.127 8.34528 109.047 8.3767C108.054 8.35156 107.073 8.60292 106.212 9.11193C105.427 9.60208 104.799 10.3059 104.403 11.1417C103.963 12.0717 103.743 13.0897 103.755 14.1203C103.743 15.1383 103.963 16.15 104.39 17.0738C104.773 17.9095 105.389 18.6196 106.156 19.1161V19.1224Z" />
<path d="M118.259 19.1348C119.127 19.6187 120.094 19.8701 121.087 19.8701C122.08 19.8701 123.048 19.6187 123.915 19.1348C124.713 18.651 125.36 17.9471 125.775 17.1114C126.209 16.1751 126.429 15.157 126.429 14.1265C126.429 13.0959 126.202 12.0779 125.775 11.1416C125.36 10.3058 124.713 9.60198 123.921 9.11811C123.06 8.64052 122.093 8.38916 121.106 8.38916C120.12 8.38916 119.152 8.64052 118.291 9.11811C117.493 9.60198 116.846 10.2995 116.425 11.1353C115.966 12.0653 115.74 13.0959 115.758 14.1328C115.74 15.1633 115.966 16.1876 116.412 17.1177C116.827 17.9534 117.468 18.651 118.266 19.1348H118.259ZM118.329 12.1721C118.53 11.638 118.882 11.173 119.347 10.8399C119.862 10.5006 120.471 10.3372 121.087 10.3623C121.527 10.3309 121.973 10.4063 122.375 10.5886C122.778 10.7645 123.136 11.041 123.412 11.3866C123.965 12.1847 124.242 13.1462 124.192 14.1139C124.236 15.0816 123.965 16.0368 123.419 16.8412C123.148 17.1491 122.822 17.4004 122.457 17.5764C122.093 17.7586 121.691 17.8592 121.282 17.8906C120.874 17.9157 120.465 17.8592 120.082 17.7272C119.698 17.5952 119.34 17.3879 119.032 17.1177C118.944 17.036 118.856 16.9543 118.775 16.8663C118.215 16.0682 117.939 15.1005 117.989 14.1265C117.977 13.4604 118.09 12.8005 118.322 12.1784L118.329 12.1721Z" />
<path d="M131.48 8.68457H129.375V19.5685H131.48V8.68457Z" />
<path d="M131.48 4.85742H129.375V6.90602H131.48V4.85742Z" />
<path d="M142.61 19.5683H144.746V13.5231C144.746 13.1335 144.715 12.7439 144.658 12.3543C144.595 11.8892 144.482 11.4305 144.319 10.9969C144.149 10.5319 143.904 10.0983 143.59 9.71496C143.251 9.3065 142.83 8.97974 142.346 8.7598C141.749 8.50844 141.101 8.38904 140.454 8.42046C139.574 8.39532 138.707 8.61527 137.941 9.05515C137.526 9.31908 137.155 9.65213 136.853 10.0417V8.70953H134.968V19.5746H137.105V13.9127C137.092 13.3597 137.161 12.8004 137.318 12.2663C137.438 11.8641 137.639 11.4933 137.915 11.1791C138.154 10.9089 138.462 10.7016 138.802 10.5822C139.141 10.4565 139.505 10.3936 139.87 10.3936C140.366 10.3685 140.85 10.4942 141.277 10.7455C141.629 10.978 141.918 11.2985 142.113 11.6693C142.314 12.0589 142.446 12.4799 142.515 12.9135C142.584 13.3471 142.616 13.7807 142.622 14.2143L142.61 19.562V19.5683Z" />
<path d="M71.5193 35.7622H76.7978V33.6696H71.5193V29.5536H78.0107V27.4673H69.4204V41.9582H71.5256V35.7622H71.5193Z" />
<path d="M81.8237 41.525C82.6909 42.0088 83.6587 42.2602 84.6515 42.2602C85.6444 42.2602 86.6121 42.0088 87.4793 41.525C88.2774 41.0411 88.9247 40.3373 89.3394 39.5015C89.773 38.5652 89.9992 37.5472 89.9992 36.5166C89.9992 35.486 89.773 34.468 89.3394 33.5317C88.9247 32.6959 88.2837 31.9921 87.4856 31.5082C86.6247 31.0307 85.657 30.7793 84.6704 30.7793C83.6838 30.7793 82.7161 31.0307 81.8551 31.5082C81.0571 31.9921 80.4098 32.6896 79.9888 33.5254C79.5301 34.4554 79.2976 35.486 79.3227 36.5229C79.2976 37.5535 79.5238 38.5778 79.9699 39.5078C80.3847 40.3436 81.0257 41.0411 81.8237 41.525ZM81.8928 34.556C82.0877 34.0219 82.4458 33.5568 82.9109 33.2238C83.4324 32.897 84.042 32.7462 84.6578 32.7776C85.0977 32.7462 85.5376 32.8216 85.946 33.0038C86.3482 33.1798 86.7064 33.4563 86.9829 33.8019C87.5359 34.6 87.8124 35.5552 87.7621 36.5292C87.8061 37.4969 87.5359 38.4458 86.9892 39.2439C86.719 39.5518 86.3922 39.8031 86.0277 39.9791C85.6633 40.155 85.2611 40.2682 84.8526 40.2933C84.4442 40.3184 84.0357 40.2619 83.6524 40.1299C83.2691 39.9979 82.9109 39.7906 82.6029 39.5204C82.515 39.4387 82.427 39.357 82.3453 39.269C81.786 38.4709 81.5095 37.5032 81.5598 36.5292C81.5472 35.8631 81.6603 35.2032 81.8928 34.5811V34.5497V34.556Z" />
<path d="M102.443 41.9586V31.0747H100.319V36.7366C100.331 37.2896 100.256 37.8426 100.099 38.3767C99.9855 38.7789 99.7781 39.1497 99.5079 39.4639C99.2628 39.7341 98.9612 39.9352 98.6219 40.0608C98.2825 40.1865 97.9181 40.2494 97.5536 40.2494C97.0634 40.2745 96.5733 40.1488 96.1522 39.8975C95.8003 39.6712 95.5113 39.357 95.3165 38.9863C95.1154 38.5967 94.9771 38.1756 94.9143 37.742C94.8452 37.3084 94.8075 36.8749 94.8075 36.4413V31.081H92.6709V37.1262C92.6709 37.5158 92.7086 37.9054 92.7589 38.295C92.828 38.7601 92.9411 39.2125 93.0982 39.6524C93.2679 40.1174 93.5192 40.551 93.8272 40.9343C94.1665 41.3428 94.5938 41.6633 95.0714 41.8895C95.6684 42.1471 96.3156 42.2728 96.9692 42.254C97.8489 42.2791 98.7161 42.0592 99.4765 41.613C99.8975 41.3554 100.268 41.0223 100.57 40.6327V41.9649H102.443V41.9586Z" />
<path d="M111.309 30.7855C110.429 30.7604 109.562 30.9803 108.801 31.4202C108.38 31.6778 108.01 32.0109 107.714 32.4005V31.0683H105.829V41.9585H107.966V36.2966C107.953 35.7436 108.029 35.1843 108.186 34.6502C108.305 34.248 108.506 33.8772 108.776 33.563C109.021 33.2928 109.323 33.0917 109.662 32.966C110.008 32.8404 110.366 32.7775 110.731 32.7775C111.227 32.7587 111.717 32.8781 112.138 33.1294C112.496 33.3557 112.786 33.6761 112.98 34.0532C113.181 34.4428 113.32 34.8638 113.382 35.2974C113.452 35.7373 113.489 36.1835 113.489 36.6296V41.9522H115.638V35.907C115.638 35.5174 115.601 35.1278 115.55 34.7381C115.481 34.2731 115.368 33.8207 115.205 33.3808C115.035 32.9158 114.79 32.4822 114.476 32.0989C114.137 31.6967 113.716 31.3699 113.238 31.1437C112.635 30.8798 111.975 30.7604 111.315 30.7855H111.309Z" />
<path d="M125.824 41.4995C126.051 41.3361 126.258 41.1476 126.446 40.9465V41.9582H128.319V27.4673H126.201V31.841C125.799 31.4765 125.334 31.2 124.825 31.0178C124.316 30.8355 123.776 30.7601 123.235 30.7915C122.293 30.7664 121.369 31.0303 120.577 31.5456C119.829 32.0546 119.232 32.7647 118.862 33.5879C118.459 34.5054 118.265 35.5045 118.283 36.51C118.265 37.5154 118.459 38.5146 118.862 39.4321C119.226 40.2615 119.817 40.9779 120.565 41.4932C121.338 42.0148 122.255 42.2787 123.185 42.2536C124.115 42.2913 125.039 42.0274 125.812 41.5058L125.824 41.4995ZM120.841 38.458C120.615 37.8359 120.502 37.1698 120.514 36.51C120.508 35.8502 120.615 35.1966 120.841 34.5745C121.036 34.0278 121.381 33.5502 121.84 33.192C122.343 32.8338 122.946 32.6579 123.562 32.6767C124.146 32.6579 124.718 32.8276 125.19 33.1669C125.629 33.5062 125.956 33.9712 126.132 34.4991C126.346 35.1401 126.453 35.8125 126.44 36.4911C126.453 37.1698 126.346 37.8422 126.132 38.4832C125.963 39.0362 125.629 39.52 125.177 39.8719C124.687 40.2238 124.09 40.3935 123.487 40.3684C122.89 40.3809 122.312 40.1987 121.834 39.8405C121.381 39.4823 121.042 39.0047 120.847 38.458H120.841Z" />
<path d="M140.197 32.853C139.877 32.1492 139.317 31.5899 138.607 31.2757C137.803 30.9301 136.942 30.7541 136.068 30.773C135 30.7164 133.944 31.0117 133.052 31.6024C132.304 32.1429 131.758 32.9284 131.513 33.8207L133.473 34.4303C133.542 34.1538 133.668 33.8961 133.838 33.6636C134.007 33.4374 134.221 33.2426 134.466 33.098C134.95 32.8341 135.49 32.6959 136.037 32.7021C136.948 32.7021 137.583 32.9095 137.954 33.3243C138.312 33.7704 138.5 34.3297 138.494 34.9078L137.25 35.0838C136.577 35.1781 135.918 35.2786 135.321 35.3854C134.768 35.4797 134.215 35.6054 133.674 35.7562C133.165 35.9133 132.694 36.1521 132.267 36.4663C131.89 36.7428 131.582 37.1072 131.381 37.5283C131.179 37.987 131.079 38.4834 131.085 38.9799C131.085 39.5517 131.223 40.111 131.5 40.6074C131.795 41.1102 132.223 41.5249 132.738 41.7951C133.366 42.1093 134.064 42.2601 134.761 42.2413C135.654 42.279 136.54 42.0779 137.332 41.6569C137.872 41.3364 138.331 40.9028 138.689 40.3875V41.9711H140.549V35.2723C140.549 34.845 140.53 34.4177 140.492 33.9904C140.455 33.6008 140.348 33.2174 140.184 32.8655L140.197 32.853ZM138.262 38.3892C138.174 38.7725 137.998 39.1307 137.746 39.4323C137.464 39.778 137.112 40.0544 136.709 40.243C136.226 40.4629 135.698 40.576 135.164 40.5572C134.787 40.5697 134.403 40.5006 134.058 40.3498C133.794 40.2241 133.567 40.0293 133.41 39.778C133.272 39.5392 133.197 39.2752 133.197 38.9987C133.19 38.7411 133.26 38.4834 133.398 38.2635C133.536 38.0561 133.718 37.8802 133.932 37.7482C134.177 37.5974 134.435 37.478 134.705 37.3837C135.088 37.2706 135.484 37.1764 135.88 37.1072C136.326 37.0318 136.81 36.9501 137.357 36.8747L138.482 36.7051C138.482 36.881 138.482 37.0884 138.456 37.3146C138.444 37.6791 138.381 38.0436 138.262 38.3892Z" />
<path d="M146.789 28.0581H144.677V31.0807H142.591V32.7837H144.677V37.6789C144.677 38.2696 144.677 38.7975 144.702 39.2625C144.721 39.7401 144.853 40.2114 145.086 40.6387C145.337 41.1289 145.745 41.5247 146.248 41.7447C146.807 41.9898 147.411 42.1154 148.02 42.128C148.693 42.1469 149.371 42.0903 150.037 41.9584V40.1863C149.422 40.2805 148.793 40.3057 148.177 40.2554C147.945 40.2428 147.712 40.1737 147.511 40.048C147.31 39.9223 147.14 39.7527 147.027 39.5453C146.895 39.2939 146.82 39.0174 146.82 38.7284V32.7837H150.056V31.0807H146.82L146.795 28.0581H146.789Z" />
<path d="M154.776 27.2476H152.671V29.2961H154.776V27.2476Z" />
<path d="M154.776 31.0811H152.671V41.965H154.776V31.0811Z" />
<path d="M165.886 31.5146C165.025 31.037 164.051 30.7856 163.071 30.7856C162.091 30.7856 161.117 31.037 160.256 31.5146C159.458 31.9985 158.81 32.696 158.396 33.5318C157.937 34.4618 157.704 35.4924 157.729 36.5292C157.704 37.5598 157.931 38.5841 158.383 39.5141C158.791 40.3562 159.432 41.06 160.23 41.5439C161.098 42.0277 162.065 42.2791 163.058 42.2791C164.051 42.2791 165.019 42.0277 165.886 41.5439C166.684 41.06 167.331 40.3562 167.746 39.5204C168.18 38.5841 168.406 37.5661 168.406 36.5355C168.406 35.5049 168.18 34.4869 167.746 33.5506C167.338 32.7085 166.69 32.0047 165.892 31.5146H165.886ZM165.383 39.2251C165.113 39.533 164.786 39.7781 164.422 39.9603C164.057 40.1425 163.655 40.2431 163.253 40.2682C162.845 40.2934 162.436 40.2368 162.053 40.1048C161.67 39.9729 161.311 39.7655 161.003 39.4953C160.915 39.4136 160.834 39.3319 160.752 39.2439C160.186 38.4459 159.897 37.4844 159.941 36.5041C159.929 35.838 160.042 35.1782 160.274 34.5561C160.476 34.0219 160.827 33.5569 161.292 33.2238C161.814 32.8971 162.424 32.74 163.039 32.7777C163.479 32.7463 163.919 32.8279 164.328 33.0039C164.73 33.1799 165.088 33.4563 165.365 33.802C165.911 34.5937 166.188 35.5426 166.144 36.5041C166.188 37.4718 165.917 38.4207 165.371 39.2188H165.383V39.2251Z" />
<path d="M174.175 33.5631C174.42 33.2992 174.722 33.0918 175.061 32.9661C175.4 32.8404 175.765 32.7776 176.129 32.7776C176.619 32.7525 177.109 32.8781 177.53 33.1295C177.889 33.362 178.178 33.6762 178.366 34.0533C178.567 34.4429 178.699 34.8639 178.768 35.2975C178.838 35.7374 178.875 36.1835 178.875 36.6297V41.9523H181.012V35.907C181.012 35.5174 180.98 35.1278 180.924 34.7382C180.855 34.2732 180.742 33.8207 180.584 33.3809C180.415 32.9158 180.17 32.4823 179.856 32.0989C179.516 31.6905 179.095 31.3637 178.611 31.1438C178.014 30.8798 177.367 30.7604 176.714 30.7793C175.834 30.7541 174.967 30.9741 174.206 31.414C173.791 31.6716 173.421 32.0047 173.119 32.3943V31.0621H171.234V41.9523H173.37V36.2904C173.358 35.7374 173.433 35.1781 173.584 34.644C173.703 34.2418 173.905 33.871 174.175 33.5568V33.5631Z" />
<path d="M193.259 27.1783C192.926 27.1972 192.593 27.2726 192.279 27.3983C191.933 27.5365 191.619 27.7565 191.374 28.0392C191.154 28.2843 190.984 28.5671 190.883 28.8813C190.783 29.1829 190.726 29.4908 190.707 29.805C190.689 30.1192 190.676 30.4146 190.676 30.6911V31.0744H188.873V32.7774H190.676V41.952H192.781V32.7774H195.534V31.0744H192.781V30.2826C192.775 30.0878 192.8 29.8993 192.869 29.7171C192.938 29.5348 193.039 29.3715 193.171 29.2332C193.322 29.1012 193.504 29.0007 193.692 28.9379C193.881 28.875 194.088 28.8499 194.289 28.8624H195.552V27.1406H194.183C193.887 27.1406 193.586 27.1469 193.253 27.172L193.259 27.1783Z" />
<path d="M205.192 31.5146C204.331 31.037 203.357 30.7856 202.377 30.7856C201.397 30.7856 200.423 31.037 199.555 31.5146C198.757 31.9985 198.116 32.696 197.695 33.5318C197.237 34.4618 197.004 35.4924 197.029 36.5292C197.004 37.5598 197.23 38.5841 197.676 39.5141C198.091 40.3499 198.732 41.0537 199.53 41.5439C200.391 42.0277 201.365 42.2791 202.352 42.2791C203.338 42.2791 204.312 42.0277 205.18 41.5439C205.984 41.06 206.625 40.3562 207.046 39.5204C207.48 38.5841 207.699 37.5661 207.699 36.5355C207.699 35.5049 207.473 34.4869 207.046 33.5506C206.637 32.7085 205.99 32.0047 205.192 31.5146ZM204.689 39.2251C204.419 39.533 204.092 39.7843 203.728 39.9603C203.364 40.1425 202.961 40.2431 202.553 40.2745C202.144 40.2996 201.736 40.2431 201.353 40.1111C200.969 39.9792 200.611 39.7718 200.303 39.5016C200.215 39.4199 200.127 39.3382 200.052 39.2502C199.493 38.4521 199.21 37.4844 199.26 36.5104C199.247 35.8443 199.361 35.1845 199.593 34.5623C199.788 34.0282 200.146 33.5632 200.611 33.2301C201.133 32.9034 201.742 32.7463 202.358 32.784C202.798 32.7525 203.244 32.8217 203.646 32.9976C204.055 33.1736 204.407 33.4438 204.689 33.7831C205.242 34.5812 205.519 35.5363 205.469 36.5104C205.506 37.4781 205.23 38.427 204.689 39.2251Z" />
<path d="M215.385 31.0117C215.027 31.0369 214.675 31.106 214.342 31.2128C214.015 31.3196 213.701 31.4767 213.418 31.6841C213.129 31.8789 212.871 32.124 212.664 32.4131C212.563 32.545 212.475 32.6833 212.4 32.8278V31.0808H210.534V41.9648H212.658V36.4725C212.658 36.0578 212.695 35.6493 212.79 35.2471C212.878 34.8764 213.028 34.5182 213.236 34.1977C213.456 33.8584 213.751 33.5693 214.103 33.3619C214.449 33.1483 214.838 33.0226 215.247 32.9786C215.643 32.9346 216.045 32.9598 216.428 33.0603V31.0871C216.082 31.0243 215.731 30.9992 215.385 31.018V31.0117Z" />
<path d="M227.368 28.0581H225.25V31.0807H223.164V32.7837H225.25V37.6789C225.25 38.2696 225.25 38.7975 225.276 39.2625C225.294 39.7401 225.426 40.2114 225.653 40.6387C225.904 41.1289 226.319 41.5185 226.821 41.7447C227.381 41.9898 227.984 42.1217 228.593 42.128C229.272 42.1469 229.945 42.0903 230.611 41.9584V40.1863C229.995 40.2805 229.373 40.3057 228.751 40.2554C228.518 40.2428 228.286 40.1737 228.084 40.048C227.883 39.9223 227.72 39.7527 227.601 39.5453C227.462 39.2939 227.393 39.0174 227.393 38.7284V32.7837H230.629V31.0807H227.393L227.374 28.0581H227.368Z" />
<path d="M242.506 33.3868C242.343 32.9218 242.091 32.4819 241.777 32.1049C241.438 31.6964 241.017 31.3697 240.533 31.1497C239.936 30.8858 239.289 30.7664 238.642 30.7853C237.768 30.7601 236.907 30.9801 236.153 31.4199C235.732 31.6776 235.361 32.0106 235.066 32.4002V27.4673H233.187V41.9582H235.324V36.2963C235.311 35.7433 235.38 35.1841 235.544 34.6499C235.657 34.2477 235.864 33.877 236.134 33.5628C236.379 33.2926 236.681 33.0852 237.02 32.9595C237.36 32.8401 237.711 32.7773 238.063 32.7773C238.56 32.7521 239.044 32.8778 239.465 33.1292C239.823 33.3617 240.112 33.6822 240.301 34.0529C240.502 34.4425 240.64 34.8636 240.703 35.2972C240.778 35.7371 240.81 36.1832 240.81 36.6294V41.9519H242.946V35.9067C242.946 35.5171 242.915 35.1275 242.858 34.7379C242.789 34.2729 242.676 33.8204 242.512 33.3805L242.506 33.3868Z" />
<path d="M254.924 37.1133H255.967C256.074 35.9697 255.923 34.8134 255.521 33.7388C255.175 32.8339 254.553 32.061 253.749 31.5206C252.9 30.9927 251.914 30.7225 250.915 30.7539C249.934 30.7288 248.973 30.9801 248.125 31.464C247.32 31.9479 246.673 32.6517 246.258 33.4875C245.787 34.4552 245.561 35.5172 245.586 36.5918C245.561 37.6223 245.793 38.6341 246.265 39.5515C246.698 40.381 247.358 41.066 248.169 41.5373C249.036 42.0274 250.022 42.2662 251.022 42.2474C252.033 42.26 253.032 41.9772 253.893 41.443C254.754 40.9089 255.427 40.1171 255.816 39.1808L253.761 38.5398C253.516 39.0677 253.127 39.5138 252.637 39.8218C252.121 40.1234 251.531 40.2805 250.934 40.2616C250.5 40.2868 250.066 40.2114 249.67 40.0417C249.268 39.872 248.916 39.6081 248.64 39.275C248.169 38.6404 247.905 37.88 247.873 37.0945H254.93L254.924 37.1133ZM248.634 33.6383C248.923 33.2989 249.293 33.0287 249.702 32.8591C250.117 32.6831 250.563 32.614 251.009 32.6454C251.411 32.614 251.813 32.6768 252.184 32.8339C252.555 32.991 252.882 33.2298 253.139 33.5315C253.535 34.097 253.768 34.7631 253.812 35.4544H247.911C247.986 34.7883 248.238 34.1599 248.634 33.6257V33.6446V33.6383Z" />
<path d="M74.7047 64.342C75.0566 64.3294 75.4085 64.2917 75.7604 64.2415C76.8161 64.1346 77.8153 63.7136 78.6259 63.0287C79.424 62.3437 80.0336 61.4639 80.398 60.4836C81.1898 58.2905 81.1898 55.8837 80.398 53.6906C80.0273 52.704 79.4177 51.8243 78.6259 51.133C77.809 50.4543 76.8099 50.0396 75.7604 49.9328C75.4085 49.8888 75.0566 49.8574 74.7047 49.8511H69.4136V64.3609H73.9569L74.7047 64.342ZM71.569 51.8368H74.7676C75.0503 51.8368 75.3331 51.8682 75.6096 51.9185C76.2883 52.0316 76.9104 52.3647 77.3817 52.8611C77.8593 53.3827 78.2112 54.0111 78.406 54.696C78.8459 56.2356 78.8459 57.8632 78.406 59.4028C78.2175 60.0877 77.8719 60.7224 77.3943 61.2503C76.923 61.7656 76.2883 62.1049 75.597 62.218C75.3205 62.262 75.0378 62.2871 74.7613 62.2997H71.5564L71.569 51.8368Z" />
<path d="M93.4429 61.5836L91.3754 60.93C91.1366 61.4579 90.747 61.904 90.2569 62.212C89.7416 62.5199 89.1446 62.677 88.5476 62.6518C88.114 62.677 87.6804 62.6016 87.2845 62.4319C86.8886 62.2622 86.5304 61.9983 86.2539 61.6652C85.7826 61.0306 85.5124 60.2702 85.481 59.4847H93.5874C93.6942 58.341 93.5434 57.1847 93.1412 56.1102C92.8019 55.2178 92.186 54.4512 91.3943 53.9233C90.5522 53.3892 89.5656 53.119 88.5602 53.1504C87.5799 53.1316 86.6184 53.3766 85.7701 53.8605C84.9657 54.3444 84.3185 55.0482 83.8974 55.8839C83.4324 56.8517 83.1999 57.9137 83.2313 58.9883C83.2125 60.0125 83.445 61.0306 83.9163 61.9417C84.3499 62.7712 85.0097 63.4562 85.8203 63.9275C86.6875 64.4114 87.6741 64.6564 88.667 64.6376C89.6787 64.6502 90.6779 64.3674 91.5388 63.8332C92.3934 63.2928 93.0532 62.5073 93.4429 61.571V61.5836ZM86.2477 56.0159C86.5367 55.6766 86.9075 55.4064 87.3159 55.2367C87.7307 55.0607 88.1768 54.9916 88.623 55.023C89.0252 54.9916 89.4274 55.0607 89.7981 55.2178C90.1689 55.3749 90.4956 55.62 90.7533 55.9279C91.1429 56.4998 91.3754 57.1596 91.4194 57.8508H85.4999C85.5753 57.1847 85.8266 56.5563 86.2225 56.0159H86.2414H86.2477Z" />
<path d="M105.886 61.3634L103.749 60.8606C103.561 61.3885 103.228 61.8472 102.782 62.1929C102.298 62.5259 101.72 62.6893 101.135 62.6642C100.702 62.6893 100.274 62.6076 99.8785 62.4254C99.4826 62.2431 99.1433 61.9666 98.8857 61.621C98.3453 60.8167 98.075 59.8678 98.1127 58.9C98.1127 58.2402 98.2196 57.5867 98.4458 56.9708C98.6406 56.443 98.9799 55.978 99.4324 55.6386C99.9288 55.2993 100.526 55.1233 101.135 55.1485C101.72 55.1422 102.285 55.3181 102.763 55.6575C103.247 56.0094 103.605 56.5121 103.787 57.084L105.88 56.4744C105.641 55.4878 105.044 54.6269 104.215 54.0488C103.316 53.4392 102.248 53.1313 101.167 53.1627C100.174 53.1313 99.1936 53.389 98.3327 53.898C97.5472 54.3881 96.9188 55.0919 96.5166 55.934C96.0767 56.864 95.8568 57.882 95.8756 58.9126C95.8631 59.9306 96.0767 60.9361 96.504 61.8661C96.8874 62.7019 97.5032 63.412 98.2761 63.9147C99.1308 64.43 100.117 64.6876 101.116 64.6562C102.178 64.6876 103.228 64.3923 104.114 63.8078C104.956 63.2109 105.578 62.3562 105.886 61.3697V61.3634Z" />
<path d="M116.078 53.9419C115.236 53.4078 114.25 53.1375 113.244 53.169C112.264 53.1501 111.302 53.3952 110.454 53.8853C109.65 54.3692 109.003 55.073 108.582 55.9088C108.116 56.8765 107.884 57.9385 107.915 59.0131C107.897 60.0374 108.129 61.0554 108.6 61.9666C109.034 62.7961 109.694 63.4873 110.504 63.9523C111.372 64.4362 112.352 64.6813 113.351 64.6624C114.363 64.675 115.362 64.3985 116.223 63.8581C117.084 63.3239 117.756 62.5321 118.152 61.5958L116.085 60.936C115.84 61.4639 115.45 61.91 114.96 62.2179C114.444 62.5196 113.854 62.6767 113.257 62.6578C112.823 62.683 112.39 62.6076 111.994 62.4379C111.598 62.2682 111.24 62.0043 110.963 61.6712C110.492 61.0365 110.222 60.2825 110.19 59.4907H118.297C118.403 58.347 118.253 57.1907 117.85 56.1162C117.505 55.2238 116.889 54.4635 116.085 53.9293L116.078 53.9419ZM110.951 56.0282C111.246 55.6889 111.61 55.4249 112.025 55.249C112.44 55.073 112.886 55.0039 113.332 55.029C113.734 54.9976 114.137 55.0667 114.507 55.2238C114.878 55.3809 115.205 55.626 115.463 55.9339C115.858 56.4995 116.085 57.1656 116.129 57.8568H110.215C110.284 57.1907 110.536 56.5623 110.932 56.0282H110.951Z" />
<path d="M130.437 55.7769C130.267 55.3119 130.022 54.872 129.708 54.495C129.369 54.0865 128.948 53.7597 128.464 53.5398C127.867 53.2759 127.22 53.1565 126.572 53.1753C125.693 53.1439 124.825 53.3638 124.065 53.81C123.644 54.0677 123.273 54.4007 122.978 54.7903V53.4581H121.093V64.342H123.229V58.6864C123.217 58.1334 123.286 57.5804 123.449 57.0463C123.569 56.6441 123.776 56.2671 124.059 55.9591C124.304 55.6889 124.606 55.4878 124.945 55.3621C125.284 55.2365 125.649 55.1736 126.013 55.1736C126.503 55.1548 126.993 55.2742 127.414 55.5255C127.766 55.758 128.055 56.0785 128.25 56.4493C128.451 56.8389 128.59 57.2599 128.652 57.6935C128.722 58.1271 128.759 58.5607 128.759 58.9943V64.3483H130.896V58.3031C130.896 57.9135 130.858 57.5239 130.808 57.1342C130.732 56.6692 130.613 56.2168 130.443 55.7769H130.437Z" />
<path d="M136.935 50.4419H134.824V53.4645H132.737V55.1612H134.824V60.069C134.824 60.6597 134.824 61.1876 134.849 61.6589C134.868 62.1364 135 62.6077 135.226 63.0351C135.477 63.5252 135.892 63.9148 136.395 64.141C136.954 64.3861 137.557 64.5118 138.167 64.5244C138.839 64.5432 139.518 64.4867 140.184 64.3547V62.5826C139.568 62.6769 138.94 62.702 138.324 62.6517C138.091 62.6392 137.859 62.5638 137.658 62.4381C137.457 62.3124 137.287 62.1427 137.168 61.9416C137.036 61.6903 136.966 61.4075 136.96 61.1247V55.1675H140.196V53.4708H136.96L136.935 50.4482V50.4419Z" />
<path d="M147.574 53.4141C147.222 53.4392 146.87 53.5083 146.531 53.6151C146.204 53.7157 145.89 53.8602 145.607 54.0613C145.318 54.2624 145.067 54.5138 144.872 54.8028C144.778 54.9348 144.69 55.073 144.614 55.2176V53.4706H142.742V64.3545H144.878V58.8623C144.878 58.4538 144.922 58.0391 145.01 57.6369C145.098 57.2599 145.243 56.908 145.45 56.5812C145.67 56.2419 145.965 55.9528 146.317 55.7454C146.663 55.5318 147.053 55.4061 147.461 55.3684C147.857 55.3244 148.259 55.3495 148.642 55.4501V53.4769C148.29 53.4141 147.932 53.4015 147.574 53.4266V53.4141Z" />
<path d="M159.501 55.2428C159.18 54.539 158.615 53.9797 157.911 53.6655C157.107 53.3136 156.246 53.1439 155.372 53.1691C154.304 53.1125 153.248 53.4016 152.356 53.9923C151.608 54.5327 151.061 55.3182 150.816 56.2105L152.783 56.8138C152.852 56.5373 152.978 56.2797 153.148 56.0472C153.317 55.8209 153.531 55.6261 153.776 55.4816C154.26 55.2177 154.8 55.0794 155.347 55.0857C156.258 55.0857 156.893 55.2931 157.27 55.7078C157.628 56.1603 157.811 56.7195 157.798 57.2914L156.56 57.4673C155.888 57.5616 155.228 57.6621 154.631 57.7753C154.078 57.8695 153.525 57.9952 152.991 58.146C152.482 58.3031 152.01 58.5419 151.583 58.8561C151.2 59.1326 150.898 59.4971 150.697 59.9181C150.496 60.3705 150.395 60.867 150.402 61.3697C150.402 61.9416 150.54 62.5008 150.816 62.9973C151.112 63.5 151.539 63.9147 152.054 64.1912C152.683 64.5054 153.38 64.6562 154.078 64.6311C154.97 64.6625 155.856 64.4489 156.642 64.0216C157.182 63.7011 157.641 63.2675 157.999 62.7522V64.3358H159.859V57.6684C159.859 57.2411 159.84 56.8138 159.803 56.3865C159.765 55.9969 159.664 55.6136 159.495 55.2554L159.501 55.2428ZM157.572 60.779C157.477 61.1561 157.302 61.508 157.056 61.8096C156.774 62.1552 156.415 62.4317 156.013 62.6202C155.529 62.8402 155.002 62.9533 154.467 62.9344C154.09 62.947 153.707 62.8779 153.361 62.7271C153.098 62.6014 152.871 62.4066 152.72 62.1552C152.582 61.9227 152.507 61.6525 152.507 61.376C152.494 61.1184 152.563 60.8607 152.702 60.6408C152.84 60.4334 153.022 60.2574 153.242 60.1255C153.481 59.9747 153.745 59.8553 154.015 59.761C154.398 59.6416 154.794 59.5474 155.19 59.4845C155.636 59.4091 156.12 59.3274 156.667 59.252L157.785 59.0823V59.6919C157.773 60.0626 157.704 60.4271 157.584 60.779H157.572Z" />
<path d="M165.352 49.5371H163.247V64.3485H165.352V49.5371Z" />
<path d="M171.026 49.6377H168.92V51.6863H171.026V49.6377Z" />
<path d="M171.026 53.4707H168.92V64.3546H171.026V53.4707Z" />
<path d="M174.029 55.3559H179.641L173.464 64.0216V64.3546H182.683V62.4694H176.82L182.978 53.81V53.4707H174.029V55.3559Z" />
<path d="M192.826 53.9419C191.978 53.4078 190.997 53.1375 189.998 53.169C189.018 53.1501 188.056 53.3952 187.208 53.8853C186.404 54.3692 185.756 55.073 185.335 55.9088C184.87 56.8765 184.638 57.9385 184.663 59.0131C184.644 60.0374 184.877 61.0554 185.348 61.9666C185.782 62.7961 186.441 63.4873 187.252 63.9523C188.119 64.4362 189.099 64.6813 190.099 64.6624C191.117 64.675 192.11 64.3985 192.97 63.8581C193.831 63.3239 194.504 62.5321 194.893 61.5958L192.826 60.9423C192.581 61.4701 192.198 61.9163 191.707 62.2242C191.192 62.5259 190.595 62.683 189.998 62.6704C189.564 62.6955 189.131 62.6201 188.735 62.4505C188.339 62.2808 187.981 62.0169 187.704 61.6838C187.233 61.0491 186.963 60.295 186.931 59.5033H195.038C195.145 58.3596 194.994 57.2033 194.592 56.1287C194.246 55.2364 193.63 54.4698 192.826 53.9419ZM187.698 56.0282C187.987 55.6889 188.358 55.4186 188.766 55.249C189.181 55.073 189.627 55.0039 190.074 55.029C190.476 54.9976 190.878 55.0667 191.249 55.2238C191.619 55.3809 191.946 55.626 192.204 55.9339C192.6 56.4995 192.826 57.1656 192.876 57.8568H186.969C187.038 57.1907 187.29 56.5623 187.686 56.0282H187.698Z" />
<path d="M205.249 54.212C204.847 53.8475 204.382 53.571 203.873 53.3888C203.364 53.2065 202.823 53.1311 202.283 53.1626C201.34 53.1311 200.416 53.3951 199.625 53.9104C198.871 54.4194 198.28 55.1295 197.903 55.9589C197.488 56.8827 197.281 57.8819 197.3 58.8936C197.281 59.9053 197.488 60.9045 197.897 61.8282C198.267 62.6577 198.858 63.3741 199.599 63.8894C200.379 64.4047 201.29 64.6686 202.226 64.6434C203.156 64.6749 204.074 64.4109 204.847 63.8831C205.073 63.7197 205.28 63.5312 205.469 63.3238V64.3355H207.341V49.832H205.23L205.249 54.2057V54.212ZM205.186 60.8919C205.01 61.4323 204.677 61.9036 204.231 62.2492C203.734 62.5949 203.144 62.7645 202.54 62.7394C201.943 62.7645 201.353 62.5823 200.869 62.2241C200.416 61.8659 200.077 61.3883 199.889 60.8416C199.662 60.2195 199.549 59.5534 199.562 58.8936C199.555 58.2338 199.662 57.5802 199.889 56.9581C200.083 56.4114 200.429 55.9338 200.888 55.5819C201.39 55.2237 202 55.0415 202.616 55.0666C203.2 55.0415 203.772 55.2111 204.25 55.5505C204.69 55.8898 205.016 56.3548 205.192 56.8827C205.406 57.5237 205.513 58.1961 205.5 58.8747C205.513 59.5534 205.406 60.2258 205.192 60.873V60.8919H205.186Z" />
<path d="M82.9936 83.0558L79.9396 72.0839H77.7213L74.6673 83.0495L71.6133 72.0776H69.395L73.6053 86.5874H75.6979L78.8022 75.7349L81.9065 86.5874H83.9991L88.2219 72.0776H86.0037L82.9873 83.0621L82.9936 83.0558Z" />
<path d="M97.2199 76.1997C96.3779 75.6656 95.3913 75.3954 94.3859 75.4268C93.4056 75.4079 92.4441 75.653 91.5958 76.1369C90.7914 76.6207 90.1441 77.3246 89.7294 78.1603C89.2581 79.1281 89.0256 80.1901 89.057 81.2646C89.0382 82.2889 89.2707 83.3069 89.742 84.2181C90.1756 85.0476 90.8354 85.7326 91.646 86.2039C92.5132 86.6877 93.4998 86.9328 94.4927 86.914C95.5044 86.9265 96.5036 86.6437 97.3645 86.1096C98.2254 85.5754 98.8978 84.7837 99.2874 83.8474L97.2199 83.1938C96.9749 83.7217 96.5853 84.1678 96.0951 84.4758C95.5798 84.7774 94.9891 84.9345 94.3921 84.9156C93.9585 84.9408 93.525 84.8654 93.1291 84.6957C92.7332 84.526 92.375 84.2621 92.0985 83.929C91.6272 83.3006 91.357 82.5403 91.3255 81.7485H99.4319C99.5388 80.6048 99.3879 79.4485 98.9858 78.374C98.6401 77.4817 98.018 76.715 97.2199 76.1871V76.1997ZM92.0922 78.2923C92.3813 77.9529 92.7457 77.6827 93.1605 77.5068C93.5752 77.3308 94.0214 77.2554 94.4675 77.2868C94.8697 77.2554 95.2719 77.3246 95.6427 77.4817C96.0134 77.6388 96.3402 77.8838 96.5978 78.1917C96.9937 78.7573 97.22 79.4234 97.2639 80.1147H91.3695C91.4449 79.4548 91.6963 78.8201 92.0922 78.286V78.2923Z" />
<path d="M109.976 76.156C109.184 75.6407 108.261 75.3767 107.318 75.4019C106.394 75.3705 105.483 75.6344 104.723 76.156C104.597 76.2502 104.471 76.3445 104.352 76.4513V72.0776H102.234V86.5874H104.113V85.5757C104.522 86.0219 105.024 86.3738 105.59 86.6063C106.149 86.8388 106.759 86.9393 107.362 86.9079C108.292 86.933 109.21 86.6691 109.983 86.1476C110.73 85.6323 111.321 84.9222 111.686 84.0864C112.1 83.1626 112.301 82.1572 112.289 81.1518C112.308 80.14 112.1 79.1409 111.679 78.2171C111.315 77.3876 110.724 76.6713 109.976 76.156ZM109.731 83.0872C109.536 83.6339 109.197 84.1115 108.745 84.4697C108.267 84.8279 107.676 85.0101 107.073 84.985C106.47 85.0101 105.873 84.8405 105.383 84.4948C104.937 84.1492 104.603 83.6716 104.427 83.1375C104.22 82.4965 104.12 81.8179 104.126 81.1455C104.113 80.4668 104.22 79.7944 104.434 79.1534C104.61 78.6193 104.937 78.148 105.383 77.8024C105.854 77.4693 106.426 77.2934 107.01 77.3185C107.626 77.2934 108.236 77.4756 108.732 77.8338C109.191 78.1857 109.543 78.6633 109.737 79.21C109.964 79.8321 110.077 80.4857 110.064 81.1455C110.071 81.8116 109.964 82.4714 109.737 83.0935L109.731 83.0872Z" />
<path d="M47.017 47.017V22.3899H24.6271V0H0V24.6271H22.3899V44.7799H0V69.4069H22.3899V91.7969H47.017V67.1698H24.6271V47.017H47.017ZM2.23083 22.3899V2.23711H22.3837V22.3899H2.23083ZM24.6208 24.6271H44.7736V44.7799H24.6208V24.6271ZM44.7736 69.4132V89.566H24.6208V69.4132H44.7736ZM22.3837 67.195H2.23083V47.017H22.3837V67.195Z" />
<path d="M9.2373 17.3501H11.1414V13.2843H14.5599V11.3803H11.1414V9.17456H15.3956V7.27051H9.2373V17.3501Z" />
<path d="M31.6274 39.7467H33.5314V35.6558H36.9437V33.7518H33.5251V31.5712H37.7794V29.686H31.6211V39.7467H31.6274Z" />
<path d="M11.9331 62.13C12.1719 62.13 12.4107 62.13 12.6495 62.0798C13.4036 62.0044 14.1263 61.709 14.7169 61.2314C15.2888 60.7601 15.7287 60.1506 16.0052 59.4593C16.5959 57.9386 16.5959 56.2608 16.0052 54.74C15.7287 54.0488 15.2888 53.4392 14.7169 52.9679C14.1263 52.4904 13.4099 52.195 12.6495 52.1196C12.417 52.0945 12.1782 52.0756 11.9331 52.0693C11.6943 52.0693 11.5247 52.0693 11.443 52.0693H8.17529V62.1426H11.4367L11.9269 62.1238L11.9331 62.13ZM10.1171 53.854H11.9583C12.1531 53.854 12.3479 53.8791 12.5364 53.9168C12.9449 53.9922 13.3156 54.2059 13.5921 54.5138C13.8812 54.8469 14.1011 55.2365 14.2205 55.6638C14.4907 56.5875 14.4907 57.5741 14.2205 58.4979C14.1011 58.9252 13.8937 59.3211 13.6047 59.6604C13.3282 59.9809 12.9511 60.2008 12.5301 60.2763C12.3416 60.314 12.1468 60.3328 11.952 60.3328H10.1108V53.854H10.1171Z" />
<path d="M32.7522 84.5267L34.7065 77.7211L36.6546 84.5267H38.5398L41.4933 74.4534H39.4761L37.5909 81.3784L35.6994 74.4534H33.6948L31.8096 81.3658L29.9244 74.4346H27.9072L30.8607 84.5141L32.7522 84.533V84.5267Z" />
</svg>
