<svg width="402" height="125" viewBox="0 0 402 125" fill="none" xmlns="http://www.w3.org/2000/svg">
<path d="M87.1634 7.93477C86.636 2.60964 78.1466 0.617293 77.2163 0.3829C76.2787 0.148506 68.3167 -1.72664 58.8384 5.64943C49.3601 13.0255 45.1996 29.9385 45.1996 29.9385L44.3792 33.5642H43.09C35.5162 33.5789 28.2646 36.5967 22.9102 41.9438C17.5558 47.2982 14.5453 54.5498 14.5307 62.1236V63.237C14.5307 68.8625 16.1934 74.3634 19.3064 79.0513C22.4195 83.7391 26.851 87.4015 32.0369 89.577L31.3923 92.6168C30.2204 98.4107 28.0596 106.197 25.5984 111.581C23.1373 116.964 20.2147 119.367 17.2262 120.187C14.2377 121.008 12.487 119.367 11.7253 118.664C10.9635 117.961 8.09948 113.456 8.09948 113.456C7.54279 112.687 6.78101 112.086 5.90204 111.72C5.02306 111.361 4.05619 111.251 3.11861 111.405C2.70843 111.463 -0.27277 112.342 0.0202216 116.378C0.547607 121.704 9.03705 123.755 9.9673 123.93C10.9049 124.106 18.8669 126.04 28.4038 118.664C37.9407 111.288 41.984 94.3747 41.984 94.3747L42.57 91.7964H44.2107C51.7846 91.7818 59.0361 88.7639 64.3906 83.4168C69.745 78.0624 72.7555 70.8109 72.7701 63.237V62.1236C72.7701 56.4469 71.0781 50.8947 67.9065 46.1849C64.7348 41.475 60.2374 37.8126 54.9782 35.6738L55.7986 31.6964C56.9706 25.9611 59.1314 18.1162 61.5925 12.7911C64.0536 7.46598 66.9762 4.94625 69.9647 4.12587C72.9533 3.3055 74.7039 4.94625 75.4657 5.64943C76.2274 6.35261 79.0915 10.8574 79.0915 10.8574C79.6481 11.6265 80.4099 12.2271 81.2889 12.5933C82.1679 12.9523 83.1347 13.0621 84.0723 12.9083C84.4825 12.8497 87.4637 11.9707 87.1707 7.93477H87.1634ZM20.9106 63.2443V62.131C20.9399 56.3004 23.2545 50.7116 27.3564 46.5584C31.4583 42.4126 37.0251 40.0394 42.8557 39.9441L39.0541 56.2711C38.9369 56.6813 36.3 68.0934 36.3 68.0934C36.3 68.0934 34.7178 76.1726 33.3114 83.1385C29.5978 81.3073 26.4627 78.4726 24.2726 74.9567C22.0825 71.4408 20.9106 67.3829 20.9032 63.237L20.9106 63.2443ZM66.3902 62.131V63.2443C66.3902 66.1596 65.8189 69.0383 64.6982 71.7338C63.5848 74.422 61.9514 76.8685 59.8931 78.9267C57.8349 80.985 55.3884 82.6184 52.7002 83.7318C50.012 84.8452 47.126 85.4238 44.2107 85.4238H44.035L50.6493 56.2784L53.6378 42.0537C57.4393 43.8629 60.6549 46.7049 62.911 50.2501C65.167 53.8027 66.3756 57.9192 66.3976 62.1236L66.3902 62.131Z" fill="white"/>
<path d="M126.148 54.9892V19.1709H151.902V24.9648H132.938V34.5603H150.027V40.3542H132.938V54.9892H126.148Z" fill="white"/>
<path d="M158.396 23.3237V17.2368H164.776V23.3237H158.396ZM158.396 54.9888V27.5355H164.776V54.9888H158.396Z" fill="white"/>
<path d="M172.612 54.9888V17.2368H178.992V54.9888H172.612Z" fill="white"/>
<path d="M198.604 55.6341C196.077 55.7074 193.572 55.1873 191.286 54.1106C189.345 53.0485 187.807 51.3858 186.899 49.3714C185.859 46.8078 185.36 44.061 185.434 41.2922C185.353 38.5088 185.851 35.74 186.899 33.1543C187.792 31.1473 189.338 29.4919 191.286 28.4738C193.557 27.3531 196.069 26.811 198.604 26.8916C200.918 26.8257 203.218 27.3531 205.277 28.4152C207.108 29.426 208.529 31.0375 209.313 32.9785C210.25 35.0295 210.66 37.6591 210.66 40.9406V42.8157H191.989C192.026 44.288 192.282 45.7457 192.751 47.1447C193.147 48.2288 193.887 49.1517 194.861 49.7816C196.04 50.3676 197.351 50.6459 198.662 50.602C199.417 50.602 200.164 50.5068 200.889 50.309C201.578 50.1112 202.215 49.767 202.764 49.3128C203.314 48.888 203.738 48.3167 203.995 47.6721C204.295 46.9469 204.434 46.1705 204.405 45.3867H210.668C210.704 46.9543 210.404 48.5071 209.789 49.9501C209.195 51.1953 208.316 52.2794 207.21 53.1071C206.046 53.9641 204.735 54.594 203.35 54.9822C201.805 55.4144 200.215 55.6268 198.611 55.6268L198.604 55.6341ZM192.107 38.3696H204.046C204.083 37.3807 203.943 36.3846 203.636 35.4397C203.438 34.7072 203.079 34.026 202.581 33.4473C202.134 32.9199 201.548 32.5317 200.882 32.334C200.142 32.0922 199.373 31.975 198.596 31.9824C197.432 31.9604 196.274 32.1801 195.205 32.6269C194.289 33.0738 193.542 33.8136 193.095 34.7365C192.531 35.8718 192.195 37.1024 192.099 38.3623L192.107 38.3696Z" fill="white"/>
<path d="M228.568 55.6338C226.1 55.7071 223.653 55.187 221.427 54.1103C219.537 53.0409 218.057 51.3708 217.215 49.3711C216.277 47.2616 215.809 44.5148 215.809 41.2919C215.809 38.069 216.277 35.2636 217.215 33.154C218.087 31.1617 219.588 29.5209 221.485 28.4735C223.675 27.3601 226.115 26.8181 228.568 26.8913C230.231 26.862 231.894 27.0964 233.483 27.5945C234.838 28.0193 236.098 28.7152 237.168 29.6454C238.208 30.5977 239.014 31.777 239.512 33.0954C240.054 34.6117 240.31 36.2231 240.273 37.8346H233.776C233.806 36.7358 233.63 35.6445 233.249 34.619C232.875 33.8279 232.26 33.176 231.491 32.7438C230.553 32.2677 229.499 32.048 228.444 32.0992C227.213 32.026 225.997 32.3776 224.994 33.0954C224.02 33.8279 223.302 34.8534 222.95 36.0253C222.489 37.6221 222.269 39.2776 222.306 40.9403V41.6435C222.276 43.3062 222.496 44.9616 222.95 46.5584C223.309 47.7377 224.049 48.7705 225.06 49.4883C226.159 50.1915 227.448 50.5358 228.744 50.4845C229.77 50.5211 230.78 50.2794 231.674 49.7813C232.487 49.3711 233.124 48.6826 233.491 47.8476C233.937 46.8514 234.157 45.7747 234.135 44.6906H240.281C240.317 46.2654 240.061 47.8329 239.519 49.3125C239.021 50.631 238.222 51.8176 237.175 52.7625C236.12 53.7367 234.86 54.4545 233.491 54.872C231.909 55.4141 230.246 55.6778 228.576 55.6338H228.568Z" fill="white"/>
<path d="M258.944 55.6341C256.365 55.7146 253.802 55.1872 251.45 54.1105C249.451 53.0777 247.847 51.4076 246.887 49.3714C245.803 46.8223 245.283 44.0682 245.364 41.2921C245.364 37.9593 245.891 35.2638 246.887 33.1542C247.832 31.1179 249.443 29.4625 251.45 28.4737C253.78 27.3457 256.358 26.8036 258.944 26.8915C261.991 26.8915 264.503 27.4189 266.496 28.4737C268.488 29.4699 270.085 31.1253 271 33.1542C272.055 35.2638 272.524 37.952 272.524 41.2921C272.524 44.6322 272.055 47.2618 271 49.3714C270.063 51.4076 268.481 53.0704 266.496 54.1105C264.13 55.1946 261.544 55.7146 258.944 55.6341ZM258.944 50.4261C260.357 50.492 261.764 50.1405 262.987 49.43C264.071 48.7634 264.884 47.7233 265.272 46.5C265.778 44.9325 266.02 43.2918 265.976 41.6437V40.8819C266.02 39.2338 265.785 37.5931 265.272 36.0256C264.87 34.817 264.064 33.7842 262.987 33.0956C261.764 32.3851 260.365 32.0409 258.944 32.0995C257.53 32.0555 256.138 32.3998 254.908 33.0956C253.868 33.7988 253.084 34.8316 252.681 36.0256C252.176 37.5931 251.934 39.2338 251.978 40.8819V41.6437C251.934 43.2918 252.176 44.9325 252.681 46.5C253.062 47.7013 253.846 48.7341 254.908 49.43C256.138 50.1258 257.53 50.4701 258.944 50.4261Z" fill="white"/>
<path d="M279.021 23.3237V17.2368H285.401V23.3237H279.021ZM279.021 54.9888V27.5355H285.401V54.9888H279.021Z" fill="white"/>
<path d="M293.245 54.9889V27.5356H298.512L299.039 31.1614H299.449C300.086 30.319 300.834 29.5719 301.676 28.9346C302.555 28.2754 303.544 27.7773 304.606 27.4697C305.771 27.0522 307.001 26.8544 308.232 26.8837C309.807 26.869 311.359 27.1913 312.795 27.8213C314.15 28.4659 315.263 29.5353 315.952 30.8611C316.772 32.2674 317.124 34.1352 317.124 36.4206V54.9743H310.685V37.5926C310.693 36.7795 310.598 35.9738 310.392 35.19C310.18 34.5967 309.843 34.0547 309.396 33.6079C308.928 33.1903 308.364 32.89 307.756 32.7289C307.089 32.5531 306.4 32.4725 305.705 32.4945C304.613 32.4505 303.536 32.7362 302.606 33.3149C301.669 33.8569 300.9 34.648 300.379 35.6002C299.83 36.6477 299.544 37.8123 299.559 38.9916V54.967H293.238L293.245 54.9889Z" fill="white"/>
<path d="M126.148 104.739V68.9209H151.902V74.7148H132.938V84.3103H150.027V90.1042H132.938V104.739H126.148Z" fill="white"/>
<path d="M169.046 105.384C166.468 105.465 163.904 104.937 161.553 103.86C159.539 102.842 157.927 101.172 156.99 99.1214C155.906 96.5723 155.386 93.8182 155.466 91.0421C155.466 87.7093 155.994 85.0138 156.99 82.9043C157.92 80.8606 159.531 79.1979 161.553 78.2237C163.882 77.0957 166.453 76.5536 169.046 76.6415C172.093 76.6415 174.606 77.1689 176.598 78.2237C178.591 79.2199 180.187 80.8753 181.103 82.9043C182.158 85.0138 182.626 87.702 182.626 91.0421C182.626 94.3822 182.158 97.0118 181.103 99.1214C180.165 101.158 178.583 102.82 176.598 103.86C174.232 104.945 171.647 105.465 169.046 105.384ZM169.046 100.176C170.46 100.242 171.859 99.8904 173.082 99.1799C174.166 98.5134 174.979 97.4733 175.368 96.25C175.88 94.6825 176.115 93.0418 176.071 91.3937V90.6319C176.115 88.9838 175.88 87.3431 175.368 85.7756C174.972 84.567 174.159 83.5342 173.082 82.8456C171.859 82.1351 170.46 81.7909 169.046 81.8495C167.633 81.8055 166.234 82.1498 165.01 82.8456C163.97 83.5488 163.186 84.5816 162.784 85.7756C162.271 87.3431 162.036 88.9838 162.08 90.6319V91.3937C162.036 93.0418 162.271 94.6825 162.784 96.25C163.165 97.4513 163.956 98.4841 165.01 99.1799C166.241 99.8758 167.64 100.22 169.046 100.176Z" fill="white"/>
<path d="M197.842 105.384C195.205 105.384 193.044 104.681 191.403 103.216C189.762 101.751 188.883 99.2971 188.883 95.8398V77.2861H195.263V94.6679C195.241 95.4809 195.358 96.294 195.615 97.0704C195.805 97.6784 196.15 98.2204 196.611 98.6526C197.05 99.0774 197.593 99.385 198.193 99.5315C198.882 99.7 199.592 99.7806 200.303 99.7659C201.394 99.7952 202.471 99.5096 203.401 98.9456C204.331 98.3889 205.086 97.5758 205.569 96.6016C206.119 95.5762 206.404 94.4262 206.39 93.2689V77.2935H212.769V104.747H207.503L206.976 101.121H206.624C205.972 101.949 205.225 102.696 204.397 103.348C203.496 103.992 202.515 104.505 201.467 104.871C200.288 105.23 199.065 105.406 197.842 105.399V105.384Z" fill="white"/>
<path d="M220.615 104.739V77.2856H225.94L226.468 80.9114H226.819C227.471 80.0837 228.218 79.3366 229.046 78.6847C229.925 78.0254 230.914 77.5273 231.976 77.2197C233.141 76.8022 234.371 76.6044 235.602 76.6337C237.191 76.6337 238.766 76.9487 240.224 77.5713C241.579 78.2159 242.692 79.2853 243.381 80.6111C244.143 82.0174 244.494 83.8853 244.494 86.1706V104.724H238.114V87.3426C238.144 86.5295 238.019 85.7165 237.763 84.94C237.55 84.3467 237.213 83.8047 236.766 83.3579C236.312 82.955 235.77 82.6547 235.184 82.4789C234.496 82.3104 233.785 82.2298 233.075 82.2445C231.983 82.2079 230.907 82.4935 229.976 83.0649C229.053 83.6289 228.284 84.4127 227.75 85.3502C227.215 86.3977 226.959 87.5696 226.988 88.7416V104.717H220.608L220.615 104.739Z" fill="white"/>
<path d="M261.697 105.383C259.661 105.427 257.654 104.9 255.903 103.86C254.167 102.746 252.834 101.106 252.102 99.1793C251.135 96.557 250.674 93.7809 250.754 90.9829C250.754 87.6501 251.223 84.9545 252.16 82.845C252.871 80.9259 254.189 79.2778 255.903 78.1645C257.537 77.1463 259.427 76.6189 261.346 76.6409C262.488 76.6409 263.631 76.7874 264.744 77.0511C265.748 77.3148 266.7 77.7469 267.55 78.3403C268.326 78.9262 269 79.6368 269.542 80.4498H269.894V66.9868H276.274V104.739H271.007L270.48 101.113H270.07C269.213 102.49 268.004 103.604 266.561 104.329C265.037 105.039 263.382 105.405 261.705 105.383H261.697ZM263.69 99.8825C264.935 99.9631 266.18 99.6115 267.198 98.8863C268.173 98.1758 268.89 97.1723 269.242 96.015C269.696 94.5354 269.916 92.9972 269.886 91.4516V90.7485C269.901 89.5326 269.777 88.3166 269.535 87.1227C269.315 86.1412 268.912 85.2109 268.363 84.3686C267.894 83.6434 267.22 83.0721 266.429 82.7278C265.572 82.3103 264.627 82.1052 263.682 82.1418C262.364 82.0613 261.06 82.3909 259.932 83.0794C258.951 83.7386 258.24 84.7421 257.94 85.8921C257.5 87.4523 257.302 89.0711 257.354 90.6899V91.4516C257.31 93.0558 257.508 94.6526 257.94 96.1908C258.269 97.3261 258.973 98.315 259.932 99.0035C261.075 99.6408 262.371 99.9484 263.682 99.8825H263.69Z" fill="white"/>
<path d="M291.138 105.384C290.252 105.362 289.373 105.26 288.501 105.091C287.49 104.915 286.516 104.556 285.63 104.036C284.663 103.487 283.872 102.674 283.352 101.692C282.715 100.315 282.414 98.8065 282.48 97.2903C282.546 95.774 282.964 94.2944 283.703 92.9686C284.59 91.6941 285.806 90.6833 287.212 90.0387C288.941 89.2696 290.779 88.7569 292.654 88.5152C294.947 88.2222 297.254 88.083 299.562 88.105V85.8196C299.576 85.1018 299.452 84.3913 299.21 83.7101C298.946 83.0655 298.47 82.5235 297.862 82.1865C296.961 81.7837 295.98 81.6006 294.991 81.6591C293.958 81.6299 292.925 81.7837 291.951 82.1279C291.336 82.355 290.801 82.7652 290.428 83.2999C290.142 83.7101 290.003 84.2009 290.017 84.7063V85.4094H283.872C283.821 85.241 283.806 85.0579 283.813 84.8821V84.2375C283.791 82.7652 284.289 81.3369 285.22 80.2015C286.245 78.9636 287.607 78.048 289.138 77.5646C293.042 76.2754 297.262 76.3194 301.136 77.6818C302.616 78.2897 303.883 79.3299 304.769 80.6703C305.568 82.0986 305.978 83.7174 305.941 85.3509V98.2865C305.905 98.5575 305.941 98.8358 306.044 99.0922C306.147 99.3485 306.308 99.5756 306.527 99.7514C306.894 99.9931 307.319 100.132 307.758 100.162H309.457V104.549L307.934 105.018C307.128 105.223 306.308 105.318 305.473 105.311C304.652 105.311 303.832 105.157 303.07 104.842C302.374 104.586 301.752 104.168 301.254 103.612C300.777 103.026 300.419 102.344 300.199 101.619H299.906C299.291 102.352 298.58 102.996 297.796 103.553C296.91 104.139 295.943 104.593 294.932 104.901C293.687 105.216 292.413 105.377 291.131 105.37L291.138 105.384ZM293.072 100.176C294.031 100.176 294.976 100.022 295.884 99.7074C296.639 99.4145 297.32 98.953 297.877 98.3597C298.456 97.8103 298.895 97.1218 299.166 96.3673C299.452 95.5177 299.591 94.6314 299.576 93.7304V92.4998C297.811 92.4925 296.053 92.6097 294.31 92.8514C292.94 92.9979 291.614 93.4594 290.449 94.1992C289.973 94.4922 289.592 94.9097 289.329 95.4005C289.072 95.8986 288.955 96.4479 288.985 97.0046C288.985 97.5833 289.138 98.1546 289.453 98.6454C289.776 99.1508 290.244 99.539 290.794 99.7587C291.526 100.037 292.295 100.176 293.079 100.169L293.072 100.176Z" fill="white"/>
<path d="M321.4 105.384C319.993 105.472 318.594 105.098 317.422 104.329C316.463 103.721 315.723 102.813 315.313 101.751C314.917 100.703 314.72 99.5898 314.727 98.4764V82.501H311.453V77.2931H314.903L316.016 69.624H321.107V77.2931H325.846V82.501H321.107V97.8318C321.07 98.1395 321.107 98.4617 321.202 98.7547C321.304 99.0477 321.466 99.3187 321.685 99.5458C321.905 99.7729 322.169 99.9413 322.462 100.051C322.755 100.161 323.07 100.205 323.385 100.176H325.839V104.563L324.549 104.915L322.967 105.266L321.385 105.384H321.4Z" fill="white"/>
<path d="M331.578 73.0737V66.9868H337.958V73.0737H331.578ZM331.578 104.739V77.2855H337.958V104.739H331.578Z" fill="white"/>
<path d="M358.034 105.384C355.434 105.465 352.856 104.945 350.482 103.86C348.497 102.806 346.893 101.15 345.919 99.1214C344.923 97.0118 344.454 94.265 344.454 91.0421C344.454 87.8192 344.923 85.0138 345.919 82.9043C346.879 80.8826 348.49 79.2345 350.482 78.2237C352.834 77.0957 355.427 76.5536 358.034 76.6415C360.627 76.5536 363.198 77.0957 365.528 78.2237C367.542 79.2199 369.153 80.868 370.091 82.9043C371.087 85.0138 371.556 87.702 371.556 91.0421C371.556 94.3822 371.087 97.0118 370.091 99.1214C369.131 101.158 367.527 102.828 365.528 103.86C363.176 104.937 360.613 105.457 358.034 105.384ZM358.034 100.176C359.448 100.22 360.847 99.8758 362.078 99.1799C363.132 98.4914 363.916 97.4586 364.304 96.25C364.81 94.6825 365.051 93.0418 365.007 91.3937V90.6319C365.051 88.9838 364.81 87.3431 364.304 85.7756C363.901 84.5816 363.118 83.5561 362.078 82.8456C360.818 82.1937 359.426 81.8568 358.012 81.8568C356.599 81.8568 355.2 82.1937 353.947 82.8456C352.907 83.5488 352.123 84.5816 351.72 85.7756C351.215 87.3431 350.973 88.9838 351.017 90.6319V91.3937C350.973 93.0418 351.215 94.6825 351.72 96.25C352.101 97.4513 352.892 98.4841 353.947 99.1799C355.192 99.8831 356.613 100.227 358.042 100.176H358.034Z" fill="white"/>
<path d="M378.054 104.74V77.2864H383.379L383.907 80.9122H384.258C384.925 80.0991 385.672 79.352 386.485 78.6854C387.371 78.0335 388.36 77.5427 389.415 77.2205C390.58 76.8103 391.81 76.6125 393.041 76.6345C394.63 76.6198 396.205 76.9421 397.663 77.572C399.018 78.2166 400.131 79.2861 400.82 80.6118C401.662 82.3405 402.065 84.2523 401.992 86.1714V104.725H395.553V87.3433C395.582 86.5303 395.458 85.7172 395.202 84.9408C395.011 84.3328 394.667 83.7908 394.205 83.3586C393.766 82.9338 393.217 82.6262 392.623 82.4797C391.935 82.3112 391.224 82.2306 390.514 82.2453C389.422 82.216 388.346 82.5016 387.415 83.0656C386.5 83.615 385.745 84.3988 385.247 85.351C384.668 86.3838 384.383 87.5631 384.427 88.7424V104.718H378.047L378.054 104.74Z" fill="white"/>
</svg>
