<svg width="256" height="71" viewBox="0 0 256 71" xmlns="http://www.w3.org/2000/svg">
<path d="M80.5059 33.9156C80.5059 45.4478 87.9086 53.4854 98.1711 53.4854C108.434 53.4854 115.836 45.4478 115.836 33.9156C115.836 22.3833 108.434 14.3457 98.1711 14.3457C87.9086 14.3457 80.5059 22.3833 80.5059 33.9156ZM109.069 33.9156C109.069 42.1687 104.572 47.5096 98.1711 47.5096C91.7702 47.5096 87.2738 42.1687 87.2738 33.9156C87.2738 25.6624 91.7702 20.3215 98.1711 20.3215C104.572 20.3215 109.069 25.6624 109.069 33.9156Z" />
<path d="M134.906 53.4856C142.681 53.4856 147.125 46.9274 147.125 39.047C147.125 31.1666 142.681 24.6084 134.906 24.6084C131.306 24.6084 128.662 26.0354 126.92 28.0972V25.1326H120.572V62.426H126.92V49.9968C128.668 52.0586 131.312 53.4856 134.906 53.4856ZM126.757 38.2491C126.757 33.013 129.722 30.1532 133.636 30.1532C138.237 30.1532 140.724 33.7526 140.724 39.0412C140.724 44.3297 138.237 47.9291 133.636 47.9291C129.722 47.9291 126.757 45.0228 126.757 39.8915V38.2491Z" />
<path d="M164.306 53.4856C169.863 53.4856 174.248 50.5792 176.205 45.7101L170.76 43.6482C169.915 46.5022 167.428 48.0922 164.306 48.0922C160.235 48.0922 157.375 45.1859 156.903 40.4215H176.368V38.3073C176.368 30.689 172.082 24.6084 164.044 24.6084C156.006 24.6084 150.823 30.9045 150.823 39.047C150.823 47.6146 156.379 53.4856 164.312 53.4856H164.306ZM163.992 29.9493C168.01 29.9493 169.915 32.5936 169.967 35.663H157.218C158.167 31.9063 160.707 29.9493 163.986 29.9493H163.992Z" />
<path d="M181.127 52.9031H187.476V36.6124C187.476 32.646 190.382 30.5318 193.242 30.5318C196.731 30.5318 198.111 33.0188 198.111 36.4551V52.9031H204.46V34.603C204.46 28.6272 200.971 24.6084 195.152 24.6084C191.553 24.6084 189.072 26.2509 187.482 28.0972V25.1326H181.133V52.9031H181.127Z" />
<path d="M223.047 14.9224L208.661 52.903H215.377L218.603 44.2305H234.999L238.278 52.903H245.104L230.718 14.9224H223.047ZM226.752 22.4358L232.78 38.3072H220.828L226.752 22.4358Z" />
<path d="M255.999 15.0327H249.231V53.0134H255.999V15.0327Z" />
<path d="M64.9959 28.8716C66.5976 24.0665 66.0443 18.8071 63.4874 14.4389C59.6375 7.74087 51.9027 4.29285 44.3485 5.91202C40.9879 2.12619 36.1595 -0.0288304 31.0981 0.000291381C23.375 -0.0171817 16.5256 4.95683 14.1492 12.3013C9.18689 13.3148 4.90597 16.425 2.4015 20.8224C-1.47752 27.5029 -0.59222 35.9308 4.58564 41.6561C2.98394 46.4612 3.53726 51.7206 6.09415 56.0889C9.94405 62.7869 17.6788 66.2349 25.233 64.6157C28.5936 68.4016 33.422 70.5566 38.4834 70.5216C46.2123 70.5391 53.0676 65.5651 55.4381 58.2089C60.4005 57.1955 64.6814 54.0853 67.1858 49.6879C71.059 43.0074 70.1737 34.5912 64.9959 28.86V28.8716ZM38.4892 65.9204C35.3965 65.9204 32.4028 64.8429 30.0264 62.8626C30.1371 62.8043 30.3235 62.6995 30.4458 62.6296L44.4883 54.5163C45.2047 54.1086 45.6474 53.3456 45.6415 52.5185V32.7215L51.5766 36.1463C51.6406 36.1754 51.6814 36.2394 51.693 36.3093V52.7049C51.6814 59.997 45.7813 65.9087 38.4892 65.9204ZM10.0955 53.7941C8.5462 51.1207 7.98706 47.9814 8.51708 44.941C8.62191 45.0051 8.80247 45.1158 8.93643 45.1915L22.979 53.3048C23.6895 53.7242 24.5748 53.7242 25.2854 53.3048L42.4323 43.4034V50.2587C42.4323 50.3286 42.4032 50.3985 42.3508 50.4392L28.1568 58.6341C21.8316 62.2743 13.759 60.1135 10.1013 53.7941H10.0955ZM6.39701 23.1405C7.94047 20.4613 10.3751 18.4111 13.2756 17.3452C13.2756 17.4675 13.2698 17.683 13.2698 17.8287V34.0495C13.2698 34.8765 13.7066 35.6395 14.423 36.0473L31.5699 45.9428L25.6349 49.3676C25.5766 49.4083 25.5009 49.4142 25.4368 49.385L11.2371 41.1843C4.92928 37.5325 2.76261 29.4599 6.39701 23.1346V23.1405ZM55.1644 34.4863L38.0175 24.5849L43.9525 21.1602C44.0107 21.1194 44.0864 21.1136 44.1505 21.1427L58.3503 29.3376C64.6697 32.9895 66.8364 41.0737 63.1845 47.3989C61.6411 50.0723 59.2065 52.1225 56.3059 53.1883V36.4783C56.3118 35.6512 55.8749 34.894 55.1585 34.4805L55.1644 34.4863ZM61.0703 25.5984C60.9654 25.5343 60.7849 25.4236 60.6509 25.3479L46.6084 17.2346C45.8978 16.8152 45.0125 16.8152 44.3019 17.2346L27.155 27.136V20.2807C27.155 20.2108 27.1841 20.1409 27.2366 20.1002L41.4305 11.9111C47.7558 8.26506 55.84 10.4317 59.486 16.757C61.0295 19.4304 61.5828 22.558 61.0644 25.5925L61.0703 25.5984ZM23.9283 37.8178L17.9933 34.3931C17.9292 34.364 17.8885 34.2999 17.8768 34.2301V17.8345C17.8768 10.5366 23.806 4.61901 31.1039 4.62483C34.1908 4.62483 37.1787 5.70816 39.5551 7.68262C39.4444 7.74087 39.2639 7.84571 39.1357 7.9156L25.0932 16.0289C24.3768 16.4366 23.9342 17.1996 23.94 18.0267L23.9283 37.8178ZM27.155 30.8694L34.7908 26.4604L42.4265 30.8694V39.6875L34.7908 44.0965L27.155 39.6875V30.8694Z" />
</svg>
